Patient4_TMGait_0pt3_02_right_15_GRF.mot
version=1
nRows=32
nColumns=19
inDegrees=no
endheader
time	F1x	F1y	F1z	M1x	M1y	M1z	F2x	F2y	F2z	M2x	M2y	M2z	EC1x	EC1y	EC1z	EC2x	EC2y	EC2z
28.1	0.27349	708.7553	30.0089	-268.9659	-25.9255	663.7722	-0.93264	77.5657	-2.8666	27.9062	3.3038	65.5609	-0.0592	0.0182	-0.0073	-0.0462	0.0165	0.9585
28.1194	-1.6091	736.9099	32.2435	-279.3292	-28.7518	688.0387	-0.86303	65.1577	-3.8664	23.632	3.8667	54.5317	-0.0592	0.0182	-0.0073	-0.0462	0.0165	0.9585
28.1387	-3.2553	767.9989	35.0611	-290.674	-31.9576	714.7778	-1.0635	51.5712	-4.3036	18.8531	4.1089	42.7667	-0.0592	0.0182	-0.0073	-0.0462	0.0165	0.9585
28.1581	-4.4966	798.6656	38.2855	-301.7284	-35.3175	740.9588	-1.3386	38.0552	-4.1411	14.0196	3.9418	31.3194	-0.0592	0.0182	-0.0073	-0.0462	0.0165	0.9585
28.1774	-5.2299	825.2211	41.6879	-311.1154	-38.5949	763.2339	-1.4501	25.8147	-3.5087	9.5868	3.3847	21.1339	-0.0592	0.0182	-0.0073	-0.0462	0.0165	0.9585
28.1968	-5.3909	844.3773	45.0214	-317.6239	-41.5559	778.6133	-1.3116	15.7499	-2.6338	5.9059	2.5831	12.8792	-0.0592	0.0182	-0.0073	-0.0462	0.0165	0.9585
28.2161	-4.962	853.8729	48.0545	-320.44	-43.9955	785.0508	-1.0369	8.2469	-1.7451	3.1374	1.753	6.8127	-0.0592	0.0182	-0.0073	-0.0462	0.0165	0.9585
28.2355	-3.9516	852.9603	50.5808	-319.3261	-45.7361	781.8777	-0.72484	3.1554	-0.96906	1.2404	1.0223	2.7566	-0.0592	0.0182	-0.0073	-0.0462	0.0165	0.9585
28.2549	-2.3884	842.5328	52.4377	-314.6615	-46.6397	769.9051	-0.43679	0.026159	-0.35766	0.05869	0.44424	0.29135	-0.0592	0.0182	-0.0073	-0.0462	0.0165	0.9585
28.2742	-0.33853	824.8009	53.5481	-307.3097	-46.6538	751.1311	-0.20455	-1.7015	0.085441	-0.60865	0.021908	-1.071	-0.0592	0.0182	-0.0073	-0.0462	0.0165	0.9585
28.2936	2.1188	802.8226	53.9305	-298.4388	-45.8151	728.3104	-0.040297	-2.5808	0.38426	-0.9625	-0.26771	-1.8029	-0.0592	0.0182	-0.0073	-0.0462	0.0165	0.9585
28.3129	4.9132	779.9759	53.6886	-289.3221	-44.2336	704.4661	0.058187	-3.088	0.57653	-1.178	-0.4596	-2.3113	-0.0592	0.0182	-0.0073	-0.0462	0.0165	0.9585
28.3323	7.9946	759.4102	52.9895	-281.1371	-42.0698	682.3971	0.10654	-3.583	0.70191	-1.3905	-0.59217	-2.9032	-0.0592	0.0182	-0.0073	-0.0462	0.0165	0.9585
28.3516	11.3541	743.6021	52.0373	-274.8013	-39.503	664.2918	0.1307	-4.2954	0.79187	-1.6863	-0.69945	-3.769	-0.0592	0.0182	-0.0073	-0.0462	0.0165	0.9585
28.371	15.0163	734.0401	51.0382	-270.8557	-36.708	651.4587	0.16029	-5.3058	0.8655	-2.0952	-0.80631	-4.9659	-0.0592	0.0182	-0.0073	-0.0462	0.0165	0.9585
28.3904	18.9852	731.026	50.1704	-269.3927	-33.8477	644.1769	0.22882	-6.5215	0.92441	-2.5793	-0.92238	-6.3867	-0.0592	0.0182	-0.0073	-0.0462	0.0165	0.9585
28.4097	23.1983	733.6664	49.5753	-270.0581	-31.0832	641.7125	0.37543	-7.6373	0.94733	-3.0184	-1.0344	-7.7164	-0.0592	0.0182	-0.0073	-0.0462	0.0165	0.9585
28.4291	27.525	740.1345	49.3496	-272.152	-28.5647	642.5589	0.63928	-8.0908	0.88792	-3.1913	-1.1027	-8.3789	-0.0592	0.0182	-0.0073	-0.0462	0.0165	0.9585
28.4484	31.796	748.0831	49.5212	-274.7841	-26.4033	644.7955	1.0494	-7.0252	0.67639	-2.7608	-1.0603	-7.4953	-0.0592	0.0182	-0.0073	-0.0462	0.0165	0.9585
28.4678	35.8525	755.0251	50.0482	-277.0145	-24.6505	646.3928	1.6138	-3.2767	0.22249	-1.27	-0.81219	-3.8594	-0.0592	0.0182	-0.0073	-0.0462	0.0165	0.9585
28.4871	39.5782	758.6762	50.8494	-277.9801	-23.3062	645.4921	2.3043	4.5759	-0.57855	1.8399	-0.23416	4.0217	-0.0592	0.0182	-0.0073	-0.0462	0.0165	0.9585
28.5065	42.9059	757.2151	51.8313	-276.9925	-22.3379	640.6189	3.0338	18.0604	-1.8285	7.1701	0.81951	17.7815	-0.0592	0.0182	-0.0073	-0.0462	0.0165	0.9585
28.5259	45.7831	749.3346	52.8824	-273.559	-21.6879	630.7284	3.6166	38.5372	-3.5986	15.255	2.5058	38.9114	-0.0592	0.0182	-0.0073	-0.0462	0.0165	0.9585
28.5452	48.1207	734.1909	53.8495	-267.3732	-21.2738	615.1795	3.6064	66.8185	-5.8853	26.4113	5.0099	68.3734	-0.0592	0.0182	-0.0073	-0.0462	0.0165	0.9585
28.5646	49.7781	711.3894	54.5419	-258.3172	-21.0001	593.7137	2.1081	102.6701	-8.5686	40.542	8.566	106.0809	-0.0592	0.0182	-0.0073	-0.0462	0.0165	0.9585
28.5839	50.6159	681.0209	54.7445	-246.4745	-20.7485	566.4576	-1.7132	144.5268	-11.4579	57.0196	13.2949	150.5735	-0.0592	0.0182	-0.0073	-0.0462	0.0165	0.9585
28.6033	50.5772	643.7212	54.2554	-232.1453	-20.3784	533.9425	-7.798	189.779	-14.4815	74.7906	19.0788	199.203	-0.0592	0.0182	-0.0073	-0.0462	0.0165	0.9585
28.6226	49.7142	600.6539	52.9527	-215.8235	-19.7708	497.0871	-15.5134	236.0369	-17.6826	92.881	25.6788	249.4078	-0.0592	0.0182	-0.0073	-0.0462	0.0165	0.9585
28.642	48.1377	553.2858	50.8174	-198.0961	-18.8598	457.0316	-24.0485	282.0053	-20.9404	110.764	32.6214	299.6711	-0.0592	0.0182	-0.0073	-0.0462	0.0165	0.9585
28.6614	45.9542	503.1054	47.8945	-179.5344	-17.6263	414.936	-32.5832	326.8221	-24.1451	128.0966	39.4487	348.86	-0.0592	0.0182	-0.0073	-0.0462	0.0165	0.9585
28.6807	43.2398	451.5784	44.2975	-160.6747	-16.1075	371.9541	-40.3656	369.8352	-27.2543	144.6268	45.8129	396.012	-0.0592	0.0182	-0.0073	-0.0462	0.0165	0.9585
28.7001	40.0499	400.1204	40.2093	-142.0125	-14.4004	329.2112	-46.8019	410.7274	-30.2231	160.2452	51.4431	440.5179	-0.0592	0.0182	-0.0073	-0.0462	0.0165	0.9585
